<svg xmlns="http://www.w3.org/2000/svg" viewBox="0 0 820 220" role="img" aria-labelledby="title desc">
  <title id="title">PulsePress professional P logo</title>
  <desc id="desc">A restrained PulsePress wordmark with a clear P monogram.</desc>
  <defs>
    <linearGradient id="bg" x1="30" y1="28" x2="190" y2="188" gradientUnits="userSpaceOnUse">
      <stop offset="0" stop-color="#173B44"/>
      <stop offset="1" stop-color="#0D2029"/>
    </linearGradient>
    <linearGradient id="accent" x1="66" y1="94" x2="166" y2="145" gradientUnits="userSpaceOnUse">
      <stop offset="0" stop-color="#5AD6C7"/>
      <stop offset="1" stop-color="#2AA7A0"/>
    </linearGradient>
  </defs>
  <rect x="24" y="24" width="172" height="172" rx="38" fill="url(#bg)"/>
  <path fill="#F8FAF7" d="M73 166V55h52c32 0 52 18 52 47s-20 47-52 47h-22v17H73Zm30-44h22c13 0 21-7 21-20s-8-20-21-20h-22v40Z"/>
  <path d="M49 130h29l10-22 20 44 17-36 11 14h41" fill="none" stroke="#0D2029" stroke-width="14" stroke-linecap="round" stroke-linejoin="round" opacity="0.46"/>
  <path d="M49 130h29l10-22 20 44 17-36 11 14h41" fill="none" stroke="url(#accent)" stroke-width="8.5" stroke-linecap="round" stroke-linejoin="round"/>
  <path d="M49 130h29l10-22 20 44 17-36 11 14h41" fill="none" stroke="#F8FAF7" stroke-width="3" stroke-linecap="round" stroke-linejoin="round" opacity="0.85"/>
  <text x="230" y="120" fill="#102A36" font-family="-apple-system, BlinkMacSystemFont, 'Segoe UI', sans-serif" font-size="74" font-weight="760" letter-spacing="0">PulsePress</text>
  <rect x="235" y="143" width="188" height="4" rx="2" fill="#2AA7A0"/>
  <text x="235" y="178" fill="#5B7179" font-family="-apple-system, BlinkMacSystemFont, 'Segoe UI', sans-serif" font-size="23" font-weight="500" letter-spacing="0">reader sentiment for WordPress</text>
</svg>
