<svg xmlns="http://www.w3.org/2000/svg" viewBox="0 0 256 256" role="img" aria-labelledby="title desc">
  <title id="title">Moonfarmer Reactions Lead Capture icon</title>
  <desc id="desc">A coral reaction heart with a teal pulse line inside a rounded ink square.</desc>
  <defs>
    <linearGradient id="ppIconBg" x1="34" y1="28" x2="220" y2="228" gradientUnits="userSpaceOnUse">
      <stop offset="0" stop-color="#153E4A"/>
      <stop offset="1" stop-color="#0E1F2A"/>
    </linearGradient>
    <linearGradient id="ppHeart" x1="68" y1="70" x2="192" y2="194" gradientUnits="userSpaceOnUse">
      <stop offset="0" stop-color="#FF7A59"/>
      <stop offset="1" stop-color="#F04F6A"/>
    </linearGradient>
    <filter id="ppShadow" x="-20%" y="-20%" width="140%" height="150%" color-interpolation-filters="sRGB">
      <feDropShadow dx="0" dy="14" stdDeviation="12" flood-color="#07131A" flood-opacity="0.26"/>
    </filter>
  </defs>
  <rect width="256" height="256" rx="52" fill="url(#ppIconBg)"/>
  <circle cx="204" cy="50" r="20" fill="#4FD1C5" opacity="0.92"/>
  <circle cx="53" cy="206" r="14" fill="#FFD166" opacity="0.92"/>
  <path filter="url(#ppShadow)" fill="url(#ppHeart)" d="M128 196c-8-9-18-18-29-27-35-29-59-49-59-82 0-26 20-46 46-46 17 0 32 8 42 22 10-14 25-22 42-22 26 0 46 20 46 46 0 33-24 53-59 82-11 9-21 18-29 27Z"/>
  <path d="M62 128h31l14-30 24 67 20-50 12 13h31" fill="none" stroke="#FEFCF7" stroke-width="15" stroke-linecap="round" stroke-linejoin="round"/>
  <path d="M62 128h31l14-30 24 67 20-50 12 13h31" fill="none" stroke="#4FD1C5" stroke-width="7" stroke-linecap="round" stroke-linejoin="round"/>
</svg>
