<svg xmlns="http://www.w3.org/2000/svg" viewBox="0 0 820 220" role="img" aria-labelledby="title desc">
  <title id="title">PulsePress logo</title>
  <desc id="desc">PulsePress wordmark with a reaction heart and pulse line mark.</desc>
  <defs>
    <linearGradient id="ppLogoBg" x1="22" y1="24" x2="174" y2="176" gradientUnits="userSpaceOnUse">
      <stop offset="0" stop-color="#153E4A"/>
      <stop offset="1" stop-color="#0E1F2A"/>
    </linearGradient>
    <linearGradient id="ppLogoHeart" x1="60" y1="58" x2="150" y2="156" gradientUnits="userSpaceOnUse">
      <stop offset="0" stop-color="#FF7A59"/>
      <stop offset="1" stop-color="#F04F6A"/>
    </linearGradient>
  </defs>
  <rect x="24" y="24" width="172" height="172" rx="40" fill="url(#ppLogoBg)"/>
  <circle cx="168" cy="54" r="13" fill="#4FD1C5"/>
  <path fill="url(#ppLogoHeart)" d="M110 157c-6-7-14-13-22-20-25-21-43-36-43-60 0-19 15-34 34-34 12 0 24 6 31 16 8-10 19-16 32-16 19 0 34 15 34 34 0 24-18 39-44 60-8 7-16 13-22 20Z"/>
  <path d="M62 107h25l10-22 18 51 15-38 10 9h25" fill="none" stroke="#FEFCF7" stroke-width="11" stroke-linecap="round" stroke-linejoin="round"/>
  <path d="M62 107h25l10-22 18 51 15-38 10 9h25" fill="none" stroke="#4FD1C5" stroke-width="5" stroke-linecap="round" stroke-linejoin="round"/>
  <text x="230" y="118" fill="#102A36" font-family="-apple-system, BlinkMacSystemFont, 'Segoe UI', sans-serif" font-size="76" font-weight="760" letter-spacing="0">Pulse<tspan fill="#F04F6A">Press</tspan></text>
  <text x="235" y="157" fill="#54717C" font-family="-apple-system, BlinkMacSystemFont, 'Segoe UI', sans-serif" font-size="24" font-weight="500" letter-spacing="0">reactions, capture, and analytics for publishers</text>
</svg>
